<svg width="24" height="24" viewBox="0 0 24 24" fill="none" xmlns="http://www.w3.org/2000/svg">
    <g opacity="0.7" clip-path="url(#clip0_4185_12564)">
        <path d="M12 24C5.38312 24 0 18.6169 0 12C0 5.38312 5.38312 0 12 0C18.6169 0 24 5.38312 24 12C24 18.6169 18.6169 24 12 24ZM12 1.71423C6.32849 1.71423 1.71423 6.32849 1.71423 12C1.71423 17.6715 6.32849 22.2858 12 22.2858C17.6715 22.2858 22.2858 17.6715 22.2858 12C22.2858 6.32849 17.6715 1.71423 12 1.71423Z" fill="#676360"/>
        <path d="M16.286 17.1431C16.0667 17.1431 15.8473 17.0594 15.6799 16.8919L7.1086 8.3205C6.7737 7.9856 6.7737 7.44324 7.1086 7.10853C7.44331 6.77381 7.98586 6.77363 8.32057 7.10853L16.8919 15.6799C17.2268 16.0148 17.2268 16.5571 16.8919 16.8919C16.7246 17.0594 16.5054 17.1431 16.286 17.1431Z" fill="#676360"/>
        <path d="M7.71449 17.1431C7.49513 17.1431 7.27596 17.0595 7.1086 16.8919C6.7737 16.5572 6.7737 16.0147 7.1086 15.6799L15.6799 7.1086C16.0148 6.7737 16.5572 6.7737 16.8919 7.1086C17.2266 7.44331 17.2268 7.98586 16.8919 8.32057L8.32057 16.8919C8.15321 17.0595 7.93385 17.1431 7.71449 17.1431Z" fill="#676360"/>
    </g>
    <defs>
        <clipPath id="clip0_4185_12564">
            <rect width="24" height="24" fill="white"/>
        </clipPath>
    </defs>
</svg>
