<svg width="60" height="60" viewBox="0 0 60 60" fill="none" xmlns="http://www.w3.org/2000/svg">
    <path d="M34.6875 25.3125H55.3125V4.6875H34.6875V25.3125ZM40.3125 14.0625C40.3125 13.0284 41.1534 12.1875 42.1875 12.1875C43.2216 12.1875 44.0625 13.0284 44.0625 14.0625C44.0625 15.0966 43.2216 15.9375 42.1875 15.9375C41.1534 15.9375 40.3125 15.0966 40.3125 14.0625ZM47.7562 20.2866C47.5191 19.3378 47.0541 18.4978 46.4306 17.8125H48.3291C49.8019 17.8125 51.0806 18.81 51.4369 20.2397L52.2366 23.4375H48.5447L47.7562 20.2866ZM47.8125 15.9375C46.7784 15.9375 45.9375 15.0966 45.9375 14.0625C45.9375 13.0284 46.7784 12.1875 47.8125 12.1875C48.8466 12.1875 49.6875 13.0284 49.6875 14.0625C49.6875 15.0966 48.8466 15.9375 47.8125 15.9375ZM42.1875 17.8125C43.965 17.8125 45.5072 19.0162 45.9375 20.7403L46.6116 23.4375H37.7634L38.4375 20.7403C38.8678 19.0162 40.41 17.8125 42.1875 17.8125ZM53.4375 6.5625V20.5106L53.2566 19.7859C52.8909 18.3225 51.9112 17.1525 50.6381 16.5019C51.2062 15.8437 51.5625 14.9981 51.5625 14.0625C51.5625 11.9944 49.8806 10.3125 47.8125 10.3125C46.6875 10.3125 45.6881 10.8206 45 11.6081C44.3119 10.8206 43.3125 10.3125 42.1875 10.3125C40.1194 10.3125 38.4375 11.9944 38.4375 14.0625C38.4375 15.0553 38.8322 15.9534 39.4641 16.6247C38.0784 17.3709 37.0209 18.6741 36.6178 20.2856L36.5625 20.5097V6.5625H53.4375Z" fill="#C4AD8E"/>
    <path d="M56.25 0.9375H33.75C32.1994 0.9375 30.9375 2.19937 30.9375 3.75V5.01937C30.1931 5.29125 29.5153 5.72062 28.9491 6.28781L28.0959 7.14C26.2031 5.55281 23.8359 4.6875 21.3347 4.6875H6.5625C5.52844 4.6875 4.6875 5.52844 4.6875 6.5625H2.8125C1.77844 6.5625 0.9375 7.40344 0.9375 8.4375V53.4375C0.9375 54.4716 1.77844 55.3125 2.8125 55.3125H22.8581L23.2162 56.0288C24.1519 57.9 26.0334 59.0625 28.125 59.0625C30.2166 59.0625 32.0981 57.9 33.0337 56.0288L33.3919 55.3125H55.3125C56.3466 55.3125 57.1875 54.4716 57.1875 53.4375V28.89C58.2759 28.5019 59.0625 27.4706 59.0625 26.25V3.75C59.0625 2.19937 57.8006 0.9375 56.25 0.9375ZM29.0625 38.4375H30.9375V36.5625H29.0625V17.8125H30.9375V26.25C30.9375 27.8006 32.1994 29.0625 33.75 29.0625H51.5625V49.6875H34.9153C32.7253 49.6875 30.6647 48.8719 29.0625 47.3991V38.4375ZM30.2747 7.61344C30.4744 7.41375 30.7003 7.24687 30.9375 7.10063V15.9375H29.0625V8.82562L30.2747 7.61344ZM6.5625 6.5625H21.3347C23.5219 6.5625 25.5863 7.36688 27.1875 8.83781V15.9375H25.3125V17.8125H27.1875V36.5625H25.3125V38.4375H27.1875V47.4122C25.5863 48.8831 23.5219 49.6875 21.3347 49.6875H6.5625V6.5625ZM32.2331 53.4375L31.3566 55.1897C30.7406 56.4225 29.5022 57.1875 28.125 57.1875C26.7478 57.1875 25.5094 56.4225 24.8934 55.1897L24.0169 53.4375H2.8125V8.4375H4.6875V49.6875C4.6875 50.7216 5.52844 51.5625 6.5625 51.5625H21.3347C23.8491 51.5625 26.2266 50.6822 28.125 49.0762C30.0234 50.6822 32.4 51.5625 34.9153 51.5625H51.5625C52.5966 51.5625 53.4375 50.7216 53.4375 49.6875V29.0625H55.3125V53.4375H32.2331ZM57.1875 26.25C57.1875 26.7675 56.7666 27.1875 56.25 27.1875H33.75C33.2334 27.1875 32.8125 26.7675 32.8125 26.25V3.75C32.8125 3.2325 33.2334 2.8125 33.75 2.8125H56.25C56.7666 2.8125 57.1875 3.2325 57.1875 3.75V26.25Z" fill="#C4AD8E"/>
    <path d="M10.3125 25.3125H21.5625C22.5966 25.3125 23.4375 24.4716 23.4375 23.4375V12.1875C23.4375 11.1534 22.5966 10.3125 21.5625 10.3125H10.3125C9.27844 10.3125 8.4375 11.1534 8.4375 12.1875V23.4375C8.4375 24.4716 9.27844 25.3125 10.3125 25.3125ZM10.3125 19.1381L12.1875 17.2631L14.4413 19.5169L10.3125 23.1291V19.1381ZM12.8081 23.4375L17.8397 19.035L21.5634 22.0144V23.4375H12.8081ZM21.5625 12.1875L21.5634 19.6125L17.7853 16.59L15.855 18.2794L12.1875 14.6119L10.3125 16.4869V12.1875H21.5625Z" fill="#C4AD8E"/>
    <path d="M23.4375 44.0625V32.8125C23.4375 31.7784 22.5966 30.9375 21.5625 30.9375H10.3125C9.27844 30.9375 8.4375 31.7784 8.4375 32.8125V44.0625C8.4375 45.0966 9.27844 45.9375 10.3125 45.9375H21.5625C22.5966 45.9375 23.4375 45.0966 23.4375 44.0625ZM10.3125 32.8125H21.5625L21.5634 44.0625H10.3125V32.8125Z" fill="#C4AD8E"/>
    <path d="M49.6875 44.0625V32.8125C49.6875 31.7784 48.8466 30.9375 47.8125 30.9375H34.6875C33.6534 30.9375 32.8125 31.7784 32.8125 32.8125V44.0625C32.8125 45.0966 33.6534 45.9375 34.6875 45.9375H47.8125C48.8466 45.9375 49.6875 45.0966 49.6875 44.0625ZM34.6875 32.8125H47.8125L47.8134 44.0625H34.6875V32.8125Z" fill="#C4AD8E"/>
    <path d="M11.5195 39.0977L12.8454 37.7718L15.6581 40.5846L14.3323 41.9104L11.5195 39.0977Z" fill="#C4AD8E"/>
    <path d="M14.332 35.3486L15.6577 34.023L20.3444 38.7098L19.0188 40.0354L14.332 35.3486Z" fill="#C4AD8E"/>
    <path d="M36.5625 38.4375H38.4375V40.3125H36.5625V38.4375Z" fill="#C4AD8E"/>
    <path d="M40.3125 38.4375H42.1875V40.3125H40.3125V38.4375Z" fill="#C4AD8E"/>
    <path d="M44.0625 38.4375H45.9375V40.3125H44.0625V38.4375Z" fill="#C4AD8E"/>
</svg>
