<svg width="24" height="24" viewBox="0 0 24 24" fill="none" xmlns="http://www.w3.org/2000/svg">
    <path fill-rule="evenodd" clip-rule="evenodd" d="M11.761 20.8543C9.5904 19.5184 7.57111 17.9461 5.73929 16.1657C4.45144 14.8834 3.47101 13.3203 2.8731 11.5959C1.79714 8.25079 3.05393 4.42131 6.57112 3.28801C8.41961 2.69292 10.4384 3.03304 11.9961 4.20197C13.5543 3.03446 15.5725 2.69447 17.4211 3.28801C20.9383 4.42131 22.2041 8.25079 21.1281 11.5959C20.5302 13.3203 19.5498 14.8834 18.2619 16.1657C16.4301 17.9461 14.4108 19.5184 12.2402 20.8543L12.0051 21.0005L11.761 20.8543Z" stroke="#343537" stroke-width="1.39896" stroke-linecap="round" stroke-linejoin="round"/>
    <path d="M15.7393 7.05371C16.8046 7.39401 17.5615 8.35041 17.6561 9.4757" stroke="#343537" stroke-width="1.39896" stroke-linecap="round" stroke-linejoin="round"/>
</svg>
