<svg width="23" height="23" viewBox="0 0 23 23" fill="none" xmlns="http://www.w3.org/2000/svg">
    <path d="M10.0154 5.78174C7.38689 5.78174 5.25071 7.91791 5.25071 10.5464V12.8414C5.25071 13.3259 5.04424 14.0644 4.79807 14.4773L3.88483 15.9941C3.32101 16.9311 3.71013 17.9714 4.74248 18.3209C8.16513 19.4644 11.8578 19.4644 15.2804 18.3209C16.2413 18.0032 16.6622 16.8676 16.1381 15.9941L15.2248 14.4773C14.9866 14.0644 14.7801 13.3259 14.7801 12.8414V10.5464C14.7801 7.92586 12.636 5.78174 10.0154 5.78174Z" stroke="#1F2937" stroke-width="1.19118" stroke-miterlimit="10" stroke-linecap="round"/>
    <path d="M11.4851 6.01182C11.2389 5.94035 10.9848 5.88476 10.7228 5.853C9.9604 5.7577 9.22982 5.81329 8.54688 6.01182C8.77717 5.42417 9.34893 5.01123 10.016 5.01123C10.6831 5.01123 11.2548 5.42417 11.4851 6.01182Z" stroke="#1F2937" stroke-width="1.19118" stroke-miterlimit="10" stroke-linecap="round" stroke-linejoin="round"/>
    <path d="M12.3975 18.6064C12.3975 19.9167 11.3255 20.9888 10.0152 20.9888C9.36399 20.9888 8.76046 20.7188 8.33164 20.29C7.90281 19.8612 7.63281 19.2576 7.63281 18.6064" stroke="#1F2937" stroke-width="1.19118" stroke-miterlimit="10"/>
    <circle cx="15.999" cy="7" r="5.59559" fill="#D14343" stroke="white" stroke-width="1.19118"/>
</svg>
