<svg width="78" height="42" viewBox="0 0 78 42" fill="none" xmlns="http://www.w3.org/2000/svg">
    <rect x="0.425786" y="0.425786" width="77.1484" height="41.1484" rx="19.5742" stroke="#666666" stroke-width="0.851571"/>
    <path d="M48.5809 27.0138C48.2348 27.8207 47.8072 28.5901 47.3047 29.31C46.6334 30.2688 46.0822 30.9313 45.6597 31.3C45.0034 31.9025 44.2984 32.2125 43.5447 32.23C43.0047 32.23 42.3522 32.0763 41.5922 31.7638C40.8297 31.4525 40.1297 31.3 39.4884 31.3C38.8172 31.3 38.0972 31.4525 37.3259 31.7638C36.5559 32.0763 35.9334 32.24 35.4572 32.255C34.7359 32.2863 34.0147 31.9688 33.2959 31.3C32.8372 30.9 32.2634 30.2125 31.5747 29.24C30.8372 28.2038 30.2309 26.9975 29.7559 25.6263C29.2472 24.1425 28.9922 22.7075 28.9922 21.3175C28.9922 19.7263 29.3359 18.3525 30.0247 17.2025C30.5456 16.2994 31.2904 15.5456 32.1872 15.0138C33.0715 14.4834 34.081 14.1978 35.1122 14.1863C35.6872 14.1863 36.4409 14.3638 37.3747 14.7138C38.3084 15.0638 38.9084 15.2413 39.1697 15.2413C39.3672 15.2413 40.0309 15.0325 41.1609 14.6188C42.2272 14.235 43.1272 14.0763 43.8647 14.1388C45.8647 14.3 47.3659 15.0875 48.3647 16.5075C46.5772 17.5913 45.6934 19.1075 45.7109 21.0538C45.7259 22.57 46.2772 23.8313 47.3572 24.8325C47.8347 25.2894 48.3918 25.6551 49.0009 25.9113C48.8684 26.295 48.7284 26.6613 48.5809 27.0138ZM43.9972 8.97503C43.9972 10.1625 43.5622 11.2725 42.6984 12.2988C41.6534 13.5188 40.3909 14.225 39.0222 14.1138C39.0043 13.9645 38.9955 13.8142 38.9959 13.6638C38.9959 12.5225 39.4909 11.3025 40.3747 10.3038C40.8147 9.79878 41.3747 9.37753 42.0534 9.04253C42.7309 8.71253 43.3709 8.53003 43.9734 8.49878C43.9897 8.65878 43.9972 8.81753 43.9972 8.97503Z" fill="#9D9D9D"/>
</svg>
