<svg width="78" height="42" viewBox="0 0 78 42" fill="none" xmlns="http://www.w3.org/2000/svg">
    <rect x="0.425786" y="0.425786" width="77.1484" height="41.1484" rx="19.5742" stroke="#666666" stroke-width="0.851571"/>
    <g clip-path="url(#clip0_4137_4593)">
        <path d="M51.4286 21.2143C51.4286 14.4686 45.96 9 39.2143 9C32.4686 9 27 14.4685 27 21.2143C27 27.3107 31.4666 32.3639 37.3058 33.2802V24.745H34.2045V21.2143H37.3058V18.5233C37.3058 15.4621 39.1294 13.7712 41.9193 13.7712C43.2557 13.7712 44.6535 14.0098 44.6535 14.0098V17.0156H43.1133C41.5959 17.0156 41.1228 17.9572 41.1228 18.9232V21.2143H44.5103L43.9688 24.745H41.1228V33.2802C46.962 32.3639 51.4286 27.3108 51.4286 21.2143Z" fill="#1877F2"/>
        <path d="M43.9684 24.745L44.5099 21.2143H41.1223V18.9232C41.1223 17.9571 41.5956 17.0157 43.1129 17.0157H44.653V14.0098C44.653 14.0098 43.2553 13.7712 41.9189 13.7712C39.1289 13.7712 37.3054 15.4622 37.3054 18.5234V21.2143H34.2041V24.745H37.3054V33.2802C37.9367 33.3792 38.5748 33.4288 39.2139 33.4286C39.8529 33.4288 40.491 33.3792 41.1223 33.2802V24.745H43.9684Z" fill="white"/>
    </g>
    <defs>
        <clipPath id="clip0_4137_4593">
            <rect width="24.4286" height="24.4286" fill="white" transform="translate(27 9)"/>
        </clipPath>
    </defs>
</svg>
