<svg width="64" height="64" viewBox="0 0 64 64" fill="none" xmlns="http://www.w3.org/2000/svg">
    <g clip-path="url(#clip0_4263_14701)">
        <path d="M53.9976 22.8849L41.115 10.0023C36.0809 4.96815 27.9191 4.96815 22.885 10.0023L10.0024 22.8849C4.96825 27.919 4.96825 36.0809 10.0024 41.115L22.885 53.9976C27.9191 59.0317 36.0809 59.0317 41.115 53.9976L53.9976 41.115C59.0318 36.0809 59.0318 27.919 53.9976 22.8849Z" fill="#C4AD8E"/>
        <path d="M40.8112 37.7727L35.0383 31.9999L40.8112 26.227C41.6504 25.3878 41.6504 24.0278 40.8112 23.1887C39.972 22.3495 38.6121 22.3495 37.7729 23.1887L32 28.9615L26.2271 23.1887C25.3879 22.3495 24.028 22.3495 23.1888 23.1887C22.3496 24.0278 22.3496 25.3878 23.1888 26.227L28.9617 31.9999L23.1888 37.7727C22.3496 38.6119 22.3496 39.9719 23.1888 40.8111C24.028 41.6503 25.3879 41.6503 26.2271 40.8111L32 35.0382L37.7729 40.8111C38.6121 41.6503 39.972 41.6503 40.8112 40.8111C41.6504 39.9719 41.6504 38.6119 40.8112 37.7727Z" fill="white"/>
    </g>
    <defs>
        <clipPath id="clip0_4263_14701">
            <rect width="44" height="44" fill="white" transform="translate(32 0.887207) rotate(45)"/>
        </clipPath>
    </defs>
</svg>
