<svg width="92" height="20" viewBox="0 0 92 20" fill="none" xmlns="http://www.w3.org/2000/svg">
    <path d="M82.0576 11.6231C82.0576 11.6176 82.0576 11.6121 82.0548 11.6094C82.0539 11.613 82.0576 11.6195 82.0576 11.6231Z" fill="#ECAA30"/>
    <path d="M8.97461 12.2051C8.97553 12.1996 8.97553 12.1932 8.97827 12.1914C8.97919 12.1942 8.97553 12.2006 8.97461 12.2051Z" fill="#ECAA30"/>
    <path d="M19.0082 5.47266C17.6236 5.57156 16.1814 5.63348 14.9095 5.6868L14.7547 5.69196L14.6179 5.69884L14.3582 5.71088L14.1105 5.71948L13.8895 5.73152C12.6795 5.7857 11.3964 5.8459 10.1846 5.93878C8.97546 6.03768 7.65966 6.17613 6.41868 6.31201C5.54664 6.40575 4.66944 6.50036 3.79568 6.58292C3.18766 6.6414 2.57792 6.693 1.96474 6.736C2.39388 7.13246 2.8342 7.4283 3.36568 7.7766L3.51618 7.87807L3.67184 7.97956L3.7372 8.02858L3.86534 8.10425C3.98058 8.17305 4.05368 8.21778 4.12678 8.26508L4.23772 8.33302L4.42348 8.44912C5.44516 9.02876 6.52274 9.72794 7.71814 10.5862L7.8007 10.6378L7.88756 10.6911C8.27628 10.9586 8.52482 11.1435 8.71918 11.3129C8.9144 11.472 9.1165 11.6492 9.2627 11.8943C9.30226 11.97 9.3229 12.0456 9.32806 12.1239C9.33924 12.2039 9.33236 12.271 9.30484 12.3475C9.24292 12.486 9.15434 12.5616 9.15434 12.5616C9.05802 12.6717 8.95482 12.7629 8.84646 12.8515C8.65984 13.008 8.45774 13.1378 8.2436 13.2746L8.18254 13.3133C7.73964 13.579 7.38618 13.7682 7.03014 13.9548C6.72656 14.1096 6.42298 14.261 6.11596 14.4106L6.0076 14.4597L5.91816 14.5027C5.7625 14.5783 5.60942 14.654 5.45376 14.7323C5.34368 14.7839 5.23446 14.8424 5.1261 14.9017L4.83628 15.0599C4.65998 15.152 4.48282 15.2414 4.30566 15.3283L3.98918 15.4908C3.42158 15.7755 2.80926 16.0679 2.11696 16.3835C1.4754 16.6707 0.820082 16.9511 0.169922 17.2151C2.09374 17.8936 4.1113 18.426 6.3387 18.8534C9.00298 19.341 11.4127 19.5792 13.7063 19.5792C14.4227 19.5792 15.1976 19.5517 16.0085 19.4967C16.9864 19.4107 17.9289 19.2851 18.8096 19.1217C18.936 18.6479 19.0306 18.1327 19.1424 17.3398C19.5947 13.8525 19.5715 10.0995 19.0693 5.532C19.0177 5.47266 19.016 5.47266 19.0082 5.47266Z" fill="#19A58B"/>
    <path d="M18.8239 14.1728C18.663 14.208 18.5272 14.3353 18.4756 14.5004C18.4214 14.4935 18.3577 14.4935 18.2941 14.4935C17.8228 14.4935 17.3326 14.5529 16.7908 14.6707C16.0366 14.8384 15.2566 15.1256 14.4138 15.5496C14.3656 15.5728 14.3218 15.6064 14.2796 15.6511C14.2022 15.6683 14.124 15.7079 14.0672 15.7621C14.056 15.7707 14.0457 15.781 14.0371 15.793C14.0414 15.8825 14.044 15.9719 14.044 16.0613L14.0509 16.3013C14.1549 16.4122 14.2607 16.5232 14.3708 16.6289C14.5918 16.8439 14.8189 17.046 15.0571 17.2421C15.045 17.2326 15.0364 17.2258 15.0235 17.2163C15.3744 17.4967 15.7399 17.7581 16.1243 17.9895C16.4804 18.1993 16.8459 18.3902 17.2251 18.5622C17.7076 18.7721 18.2081 18.9535 18.7164 19.0946C18.7473 19.1014 18.78 19.1118 18.8127 19.1204C18.8273 19.1135 18.8385 19.1066 18.8531 19.1014C18.8815 19.0619 18.9081 19.0232 18.9339 18.9836C19.0277 18.748 19.1137 18.5097 19.1859 18.2672C19.2263 18.1073 19.2642 17.9473 19.3029 17.7856C19.3141 17.7082 19.3261 17.63 19.3381 17.55V17.5526C19.4628 16.5653 19.456 15.5685 19.3777 14.5761C19.3751 14.5598 19.3708 14.5434 19.3657 14.5271C19.3158 14.3147 19.1326 14.1642 18.9176 14.1642C18.8832 14.1633 18.8522 14.1676 18.8239 14.1728Z" fill="#158671"/>
    <path d="M9.48047 11.5782C9.48047 11.5727 9.48047 11.5663 9.48322 11.5645C9.48413 11.5681 9.48047 11.5745 9.48047 11.5782Z" fill="#ECAA30"/>
    <path d="M82.5644 12.1583C82.5634 12.1528 82.5634 12.1473 82.5607 12.1445C82.5598 12.1482 82.5634 12.1555 82.5644 12.1583Z" fill="#ECAA30"/>
    <path d="M72.529 5.42773C73.9136 5.52663 75.355 5.58855 76.6269 5.64187L76.7826 5.64704L76.9193 5.65391L77.1782 5.66595L77.4258 5.67456L77.6477 5.68659C78.8569 5.74077 80.14 5.80097 81.3526 5.89385C82.5618 5.99275 83.8776 6.13121 85.1185 6.26709C85.9906 6.36083 86.8678 6.45543 87.7415 6.53799C88.3496 6.59647 88.9593 6.64807 89.5725 6.69107C89.1433 7.08667 88.703 7.38338 88.1715 7.73168L88.021 7.83315L87.8654 7.93463L87.8 7.98365L87.6719 8.05933C87.5558 8.12813 87.4835 8.17285 87.4104 8.22015L87.2986 8.2881L87.1129 8.40419C86.0912 8.98383 85.0136 9.68301 83.8191 10.5413L83.7365 10.5929L83.6488 10.6462C83.2609 10.9128 83.0124 11.0986 82.818 11.268C82.6228 11.4271 82.4207 11.6034 82.2745 11.8485C82.235 11.925 82.2143 12.0007 82.2092 12.079C82.198 12.1589 82.2049 12.226 82.2324 12.3026C82.2943 12.441 82.3829 12.5159 82.3829 12.5159C82.4783 12.6259 82.5815 12.7171 82.6908 12.8057C82.8774 12.963 83.0795 13.0921 83.2936 13.2288L83.3547 13.2675C83.7976 13.5332 84.151 13.7216 84.5071 13.9082C84.8107 14.063 85.1142 14.2144 85.4213 14.3649L85.5296 14.4139L85.6191 14.4569C85.7747 14.5325 85.9287 14.6074 86.0843 14.6856C86.1944 14.7372 86.3036 14.7957 86.412 14.8551L86.7018 15.0133C86.879 15.1053 87.0553 15.1939 87.2324 15.2816L87.5489 15.4442C88.1156 15.7297 88.7288 16.0212 89.4211 16.3377C90.0627 16.6249 90.7171 16.9053 91.3682 17.1693C89.4443 17.8479 87.4268 18.3802 85.1994 18.8067C82.5351 19.2952 80.1254 19.5326 77.8318 19.5326C77.1154 19.5326 76.3405 19.5051 75.5287 19.45C74.5517 19.364 73.6092 19.2385 72.7285 19.0751C72.6021 18.6012 72.5075 18.0861 72.3966 17.2932C71.9442 13.805 71.9674 10.0528 72.4697 5.48536C72.5195 5.42774 72.5213 5.42773 72.529 5.42773Z" fill="#19A58B"/>
    <path d="M72.7116 14.1275C72.8724 14.1628 73.0083 14.2901 73.0608 14.4552C73.1149 14.4483 73.1786 14.4483 73.2422 14.4483C73.7135 14.4483 74.2037 14.5076 74.7455 14.6246C75.4997 14.7923 76.2797 15.0795 77.1234 15.5035C77.1707 15.5267 77.2154 15.5603 77.2576 15.605C77.335 15.6222 77.4132 15.6618 77.47 15.7159C77.4812 15.7245 77.4915 15.7349 77.5001 15.7469C77.4958 15.8363 77.4932 15.9258 77.4932 16.0152L77.4863 16.2552C77.3823 16.3661 77.2765 16.477 77.1664 16.5828C76.9454 16.7978 76.7183 16.9999 76.4801 17.196C76.4922 17.1865 76.5008 17.1797 76.5137 17.1702C76.1628 17.4506 75.7973 17.712 75.4137 17.9433C75.0577 18.1532 74.6922 18.3441 74.3129 18.5161C73.8305 18.7259 73.3299 18.9074 72.8217 19.0484C72.7907 19.0553 72.758 19.0656 72.7254 19.0742C72.7107 19.0674 72.6996 19.0605 72.6849 19.0553C72.6566 19.0166 72.6299 18.9779 72.6032 18.9375C72.5104 18.7018 72.4244 18.4636 72.3513 18.2211C72.3117 18.0612 72.2739 17.9012 72.2352 17.7395C72.224 17.6621 72.2119 17.5839 72.1999 17.5039V17.5065C72.0752 16.5192 72.0821 15.5224 72.1603 14.53C72.1629 14.5136 72.1681 14.4964 72.1724 14.4801C72.2214 14.2677 72.4054 14.1172 72.6204 14.1172C72.6531 14.1172 72.6832 14.1224 72.7116 14.1275Z" fill="#158671"/>
    <path d="M77.4853 0.611328H14.0543L14.0156 16.2822L77.4853 16.3235L77.5249 0.653478L77.4853 0.611328Z" fill="#60E3BE"/>
    <path d="M14.0552 0.613281L14.0156 16.2825L56.0447 16.3109C55.2776 16.2094 54.513 16.095 53.7493 15.9686C51.0885 15.5283 48.4492 14.9366 45.8597 14.1798C43.2745 13.423 40.7315 12.5114 38.2736 11.4063C35.8983 10.3382 33.5909 9.10319 31.428 7.64979C29.3563 6.25917 27.4007 4.67592 25.6781 2.87078C24.9918 2.15268 24.3391 1.40018 23.7328 0.613281H14.0552Z" fill="#5BD6B3"/>
</svg>
