<svg width="197" height="33" viewBox="0 0 197 33" fill="none" xmlns="http://www.w3.org/2000/svg">
    <path opacity="0.7" d="M196.414 6.53122H170.189V2.32422H26.1352V6.53122H2.32422L11.1102 19.2262L2.32422 32.2982H28.6832V29.2632H170.058V32.2982H196.414L187.628 19.2262L196.414 6.53122Z" fill="#E8C39E"/>
    <path d="M0 4.20703L8.786 16.903L0 29.974H26.359V4.20703H0Z" fill="#EF9A29"/>
    <path d="M194.09 4.20703L185.304 16.903L194.09 29.974H167.734V4.20703H194.09Z" fill="#EF9A29"/>
    <path d="M167.865 0H23.8105V26.939H167.865V0Z" fill="#FFAE39"/>
    <path d="M37.2461 3.34578L47.5361 3.30078L46.5501 7.87378L41.7081 7.11178L41.5961 12.4248H45.4741L45.4961 15.4068L41.4831 15.5638C41.5281 17.4918 41.5651 19.9278 41.5951 22.8728L37.2461 22.9178V3.34578Z" fill="white"/>
    <path d="M50.9216 4.91602L54.4856 4.96102C55.4866 6.35002 56.2936 8.43602 56.9066 11.215C57.5196 13.995 57.7656 16.917 57.6466 19.98H53.9706C53.9856 19.293 53.9256 17.753 53.7916 15.362L50.9896 15.474C50.8996 16.446 50.8176 17.947 50.7426 19.98H46.9316C47.0216 16.782 47.4396 13.755 48.1866 10.901C48.9346 8.04702 49.8456 6.05102 50.9216 4.91602ZM52.6256 9.33202C52.0876 10.259 51.6836 11.327 51.4146 12.538L53.4996 12.493C53.2606 11.088 52.9696 10.034 52.6256 9.33202Z" fill="white"/>
    <path d="M63.1836 19.979H59.4846L59.3496 4.95898H63.7656L66.7696 11.281L70.0876 4.95898H73.7416L73.5626 19.979H69.5496L69.7066 11.281L67.4426 16.841L65.1336 16.706L63.2956 11.281L63.1836 19.979Z" fill="white"/>
    <path d="M75.6928 4.89258L79.3018 5.04958L79.2568 19.9796H75.4238L75.6928 4.89258Z" fill="white"/>
    <path d="M90.6668 19.9569L81.0948 19.9789C81.0948 19.3059 81.0838 18.1369 81.0608 16.4709C81.0388 14.8049 81.0238 13.5079 81.0158 12.5819C81.0078 11.6549 81.0078 10.4709 81.0158 9.02894C81.0228 7.58694 81.0498 6.23094 81.0938 4.96094L85.8238 5.04994L85.1508 16.6179L90.3968 16.5729L90.6668 19.9569Z" fill="white"/>
    <path d="M90.2852 4.96094H93.8272C93.7222 9.17494 94.1862 11.2829 95.2172 11.2829C95.6802 11.2829 96.0462 11.1449 96.3152 10.8679C96.5842 10.5919 96.7602 10.2329 96.8422 9.79194C96.9242 9.35094 96.9772 8.85394 96.9992 8.30094C97.0222 7.74794 97.0142 7.19094 96.9772 6.63094C96.9402 6.06994 96.9442 5.53594 96.9882 5.02794L100.171 4.96094C100.216 7.11294 100.137 8.78694 99.9362 9.98194C99.7342 11.1779 99.3871 12.0439 98.8941 12.5819C98.4011 13.1199 97.6982 13.4409 96.7872 13.5459L97.1012 19.9129H92.8872L93.5602 13.3449C92.9772 13.2999 92.4882 13.1469 92.0922 12.8859C91.6962 12.6249 91.3782 12.2879 91.1392 11.8769C90.9002 11.4659 90.7161 10.8979 90.5901 10.1729C90.4631 9.44794 90.3812 8.69694 90.3432 7.91994C90.3042 7.14194 90.2852 6.15594 90.2852 4.96094Z" fill="white"/>
    <path d="M108.398 3.41406H121.154L120.863 7.42606L116.581 7.22406L116.514 22.7141H111.941L112.614 7.42506L108.668 7.47006L108.398 3.41406Z" fill="white"/>
    <path d="M122.859 4.96094H126.804C127.267 4.96094 127.641 4.96494 127.925 4.97194C128.209 4.97894 128.631 5.00594 129.192 5.04994C129.752 5.09494 130.215 5.16594 130.582 5.26294C130.948 5.35994 131.359 5.50194 131.815 5.68894C132.271 5.87594 132.637 6.10394 132.914 6.37294C133.19 6.64194 133.426 6.98594 133.62 7.40394C133.814 7.82294 133.912 8.30094 133.912 8.83894C133.912 10.1839 133.617 11.2189 133.027 11.9439C132.436 12.6689 131.723 13.1729 130.886 13.4569L133.823 19.9809H129.451L127.456 13.6589L126.828 13.6369L126.649 19.9809H122.838L122.859 4.96094ZM127.723 7.80794L126.983 7.85294L126.961 11.2829C127.051 11.2979 127.163 11.3129 127.297 11.3279C127.431 11.3429 127.678 11.3389 128.037 11.3169C128.396 11.2949 128.713 11.2349 128.99 11.1369C129.266 11.0399 129.517 10.8569 129.741 10.5879C129.965 10.3189 130.085 9.97594 130.1 9.55694C130.1 9.19894 130.025 8.89594 129.876 8.64894C129.726 8.40194 129.521 8.22294 129.259 8.11094C128.997 7.99894 128.744 7.91994 128.497 7.87594C128.25 7.82994 127.992 7.80794 127.723 7.80794Z" fill="white"/>
    <path d="M135.592 19.979L135.637 4.95898H144.47L144.515 8.23198L139.09 7.80598L139.023 10.743L143.506 10.9L143.461 13.904H139.134V16.953L144.447 16.661L144.537 19.979H135.592Z" fill="white"/>
    <path d="M146.217 19.979L146.262 4.95898H155.095L155.14 8.23198L149.715 7.80598L149.648 10.743L154.131 10.9L154.086 13.904H149.759V16.953L155.072 16.661L155.162 19.979H146.217Z" fill="white"/>
</svg>
