<svg width="78" height="42" viewBox="0 0 78 42" fill="none" xmlns="http://www.w3.org/2000/svg">
    <rect x="0.425786" y="0.425786" width="77.1484" height="41.1484" rx="19.5742" stroke="#666666" stroke-width="0.851571"/>
    <path d="M50.3652 18.6811H49.4282V18.6328H38.9588V23.2858H45.533C44.5739 25.9945 41.9967 27.9389 38.9588 27.9389C35.1043 27.9389 31.9792 24.8138 31.9792 20.9593C31.9792 17.1048 35.1043 13.9797 38.9588 13.9797C40.738 13.9797 42.3567 14.6509 43.5892 15.7473L46.8795 12.457C44.8019 10.5208 42.0229 9.32666 38.9588 9.32666C32.5347 9.32666 27.3262 14.5352 27.3262 20.9593C27.3262 27.3834 32.5347 32.592 38.9588 32.592C45.383 32.592 50.5915 27.3834 50.5915 20.9593C50.5915 20.1793 50.5112 19.418 50.3652 18.6811Z" fill="#FFC107"/>
    <path d="M28.668 15.5449L32.4899 18.3478C33.524 15.7874 36.0285 13.9797 38.9594 13.9797C40.7386 13.9797 42.3573 14.6509 43.5898 15.7473L46.8801 12.457C44.8025 10.5208 42.0234 9.32666 38.9594 9.32666C34.4913 9.32666 30.6164 11.8492 28.668 15.5449Z" fill="#FF3D00"/>
    <path d="M38.9595 32.5919C41.9642 32.5919 44.6944 31.442 46.7586 29.572L43.1583 26.5254C41.9511 27.4435 40.4761 27.94 38.9595 27.9388C35.9338 27.9388 33.3648 26.0095 32.3969 23.3171L28.6035 26.2398C30.5287 30.0071 34.4385 32.5919 38.9595 32.5919Z" fill="#4CAF50"/>
    <path d="M50.3654 18.6811H49.4284V18.6328H38.959V23.2859H45.5332C45.0744 24.575 44.248 25.7015 43.156 26.5261L43.1578 26.525L46.7581 29.5716C46.5033 29.8031 50.5916 26.7757 50.5916 20.9593C50.5916 20.1794 50.5114 19.418 50.3654 18.6811Z" fill="#1976D2"/>
</svg>
