<svg width="36" height="36" viewBox="0 0 36 36" fill="none" xmlns="http://www.w3.org/2000/svg">
<rect width="36" height="36" rx="10" fill="#E6DBC9"/>
<path d="M18.0154 10.7817C15.3869 10.7817 13.2507 12.9179 13.2507 15.5464V17.8414C13.2507 18.3259 13.0442 19.0644 12.7981 19.4773L11.8848 20.9941C11.321 21.9311 11.7101 22.9714 12.7425 23.3209C16.1651 24.4644 19.8578 24.4644 23.2804 23.3209C24.2413 23.0032 24.6622 21.8676 24.1381 20.9941L23.2248 19.4773C22.9866 19.0644 22.7801 18.3259 22.7801 17.8414V15.5464C22.7801 12.9259 20.636 10.7817 18.0154 10.7817Z" stroke="#1F2937" stroke-width="1.19118" stroke-miterlimit="10" stroke-linecap="round"/>
<path d="M19.4851 11.0118C19.2389 10.9403 18.9848 10.8848 18.7228 10.853C17.9604 10.7577 17.2298 10.8133 16.5469 11.0118C16.7772 10.4242 17.3489 10.0112 18.016 10.0112C18.6831 10.0112 19.2548 10.4242 19.4851 11.0118Z" stroke="#1F2937" stroke-width="1.19118" stroke-miterlimit="10" stroke-linecap="round" stroke-linejoin="round"/>
<path d="M20.3975 23.6064C20.3975 24.9167 19.3255 25.9888 18.0152 25.9888C17.364 25.9888 16.7605 25.7188 16.3316 25.29C15.9028 24.8612 15.6328 24.2576 15.6328 23.6064" stroke="#1F2937" stroke-width="1.19118" stroke-miterlimit="10"/>
<circle cx="23.999" cy="12" r="5.59559" fill="#D14343" stroke="white" stroke-width="1.19118"/>
<path d="M22.0865 14.996L22.0905 14.356L24.6465 12.056C24.8599 11.864 25.0025 11.6827 25.0745 11.512C25.1492 11.3387 25.1865 11.1613 25.1865 10.98C25.1865 10.7587 25.1359 10.5587 25.0345 10.38C24.9332 10.2013 24.7945 10.06 24.6185 9.956C24.4452 9.852 24.2479 9.8 24.0265 9.8C23.7972 9.8 23.5932 9.85467 23.4145 9.964C23.2359 10.0707 23.0945 10.2133 22.9905 10.392C22.8892 10.5707 22.8399 10.7653 22.8425 10.976H22.1145C22.1145 10.6133 22.1985 10.2933 22.3665 10.016C22.5345 9.736 22.7625 9.51733 23.0505 9.36C23.3412 9.2 23.6705 9.12 24.0385 9.12C24.3959 9.12 24.7159 9.20267 24.9985 9.368C25.2812 9.53067 25.5039 9.75333 25.6665 10.036C25.8319 10.316 25.9145 10.6333 25.9145 10.988C25.9145 11.2387 25.8825 11.456 25.8185 11.64C25.7572 11.824 25.6612 11.9947 25.5305 12.152C25.3999 12.3067 25.2359 12.472 25.0385 12.648L22.9145 14.556L22.8225 14.316H25.9145V14.996H22.0865Z" fill="white"/>
</svg>
