<svg width="186" height="181" viewBox="0 0 186 181" fill="none" xmlns="http://www.w3.org/2000/svg">
    <circle cx="97" cy="90.5" r="70" fill="#A1B17E"/>
    <circle cx="20" cy="10.5" r="10" fill="#A1B17E"/>
    <circle cx="106.5" cy="5" r="2.5" fill="#A1B17E"/>
    <circle cx="10" cy="133.5" r="5" fill="#A1B17E"/>
    <circle cx="178.5" cy="28" r="7.5" fill="#A1B17E"/>
    <circle cx="165.5" cy="161" r="2.5" fill="#A1B17E"/>
    <circle cx="170.5" cy="111" r="2.5" fill="#A1B17E"/>
    <circle cx="122" cy="171.5" r="1" fill="#A1B17E"/>
    <circle cx="62.5" cy="177" r="3.5" fill="#A1B17E"/>
    <circle cx="1" cy="75.5" r="1" fill="#A1B17E"/>
    <path d="M110.02 60.499C120.19 60.499 127 67.639 127 78.259V102.772C127 113.359 120.19 120.499 110.02 120.499H84.01C73.84 120.499 67 113.359 67 102.772V78.259C67 67.639 73.84 60.499 84.01 60.499H110.02ZM109.54 81.499C108.52 80.479 106.84 80.479 105.82 81.499L93.43 93.889L88.18 88.639C87.16 87.619 85.48 87.619 84.46 88.639C83.44 89.659 83.44 91.309 84.46 92.359L91.6 99.469C92.11 99.979 92.77 100.219 93.43 100.219C94.12 100.219 94.78 99.979 95.29 99.469L109.54 85.219C110.56 84.199 110.56 82.549 109.54 81.499Z" fill="white"/>
</svg>
